#!OML:ASF \\sashay\E\Suitcase\Project 1\Capture day 1\Session 1\Male1.ASF
:FULLY-SPECIFIED
:DEGREES
530
root 0.245556 17.4043 6.69394 6.4533 5.54543 -2.63455
lowerback -0.576516 -2.26188 0.545723
upperback -2.13827 -2.95775 4.00869
thorax -1.68843 -1.45425 3.84249
lowerneck -15.8139 -0.874487 -2.81256
upperneck 22.3198 -0.0746712 -1.62423
head 9.69084 -0.462479 -0.103718
rclavicle -2.5842e-015 5.1684e-014
rhumerus -32.7134 -21.8773 -70.0362
rradius 24.7306
rwrist -6.63973
rhand -11.7247 23.816
rfingers 7.12502
rthumb 14.3223 -5.67003
lclavicle -2.5842e-015 5.1684e-014
lhumerus -34.6152 2.99882 84.0481
lradius 28.6373
lwrist -9.60128
lhand -1.78357 42.2315
lfingers 7.12502
lthumb 23.881 70.7668
rfemur -21.6102 -1.58265 26.3794
rtibia 19.3837
rfoot -4.79163 -3.1611
rtoes 22.552
lfemur -3.37806 -4.20692 -17.0014
ltibia 45.4761
lfoot 11.2472 -19.1619
ltoes 3.6293
531
root 0.236061 17.4181 6.8436 6.27888 5.41478 -2.6535
lowerback -0.668646 -2.09851 0.576517
upperback -1.97943 -2.74745 4.01431
thorax -1.48744 -1.3519 3.82127
lowerneck -15.8393 -1.01957 -2.90498
upperneck 22.5226 -0.250693 -1.61037
head 9.76911 -0.553188 -0.107273
rclavicle 2.93207e-015 -1.51076e-014
rhumerus -32.5347 -22.6164 -69.6078
rradius 24.027
rwrist -5.96561
rhand -11.6291 24.3491
rfingers 7.12502
rthumb 14.4144 -5.13031
lclavicle 2.93207e-015 -1.51076e-014
lhumerus -34.5126 2.84724 84.1969
lradius 28.1294
lwrist -9.88745
lhand -1.3115 42.879
lfingers 7.12502
lthumb 24.3336 71.3543
rfemur -20.6069 -1.48209 26.4634
rtibia 18.94
rfoot -4.99359 -3.13072
rtoes 23.2789
lfemur -4.64334 -3.94694 -16.798
ltibia 47.7986
lfoot 13.3473 -19.0827
ltoes 9.34557
532
root 0.215427 17.4129 6.97433 5.85078 5.45212 -3.55407
lowerback -0.589169 -2.12981 1.41689
upperback -1.70383 -2.79104 4.26672
thorax -1.27389 -1.3856 3.60622
lowerneck -16.0756 -1.01142 -2.9426
upperneck 22.5593 -0.242848 -1.51406
head 9.82667 -0.54324 -0.0677424
rclavicle -3.97569e-014 4.6118e-014
rhumerus -32.5476 -22.0835 -69.9158
rradius 24.518
rwrist -6.41101
rhand -11.471 24.021
rfingers 7.12502
rthumb 14.5667 -5.44757
lclavicle -3.97569e-014 4.6118e-014
lhumerus -34.3996 3.00087 84.1423
lradius 27.9877
lwrist -10.2259
lhand -0.538747 43.2012
lfingers 7.12502
lthumb 25.0742 71.5751
rfemur -19.5611 -1.21426 27.5034
rtibia 18.6158
rfoot -5.26316 -3.10225
rtoes 23.4173
lfemur -5.55912 -3.6463 -15.4231
ltibia 50.2604
lfoot 14.2135 -19.5408
ltoes 10.0801
533
root 0.191904 17.4231 7.11353 5.47065 5.26944 -4.3234
lowerback -0.025593 -2.0103 2.10243
upperback -1.85054 -2.59081 4.48576
thorax -1.77295 -1.29063 3.47606
lowerneck -15.9618 -1.26502 -3.21268
upperneck 22.8083 -0.57293 -1.32842
head 9.89848 -0.701003 -0.00157557
rclavicle 6.85807e-015 -1.03368e-014
rhumerus -32.319 -18.5539 -71.028
rradius 23.8425
rwrist -9.91537
rhand -12.1194 23.5044
rfingers 7.12502
rthumb 13.9419 -6.00819
lclavicle 6.85807e-015 -1.03368e-014
lhumerus -34.9337 2.70778 84.2569
lradius 27.8811
lwrist -10.3754
lhand -0.0302537 43.0508
lfingers 7.12502
lthumb 25.5614 71.3557
rfemur -18.6929 -0.637558 28.4473
rtibia 18.6546
rfoot -5.74657 -3.42491
rtoes 22.9055
lfemur -6.82196 -3.08832 -14.2356
ltibia 52.5405
lfoot 15.5159 -19.6862
ltoes 16.7866
534
root 0.200261 17.3981 7.22826 5.22065 5.54436 -4.28627
lowerback -0.223279 -2.08982 2.2933
upperback -1.48295 -2.72426 4.40686
thorax -1.29028 -1.36155 3.2693
lowerneck -16.3483 -1.23395 -3.15007
upperneck 22.8614 -0.566548 -1.17719
head 9.9898 -0.676639 0.0393228
rclavicle -3.73715e-014 3.18055e-014
rhumerus -32.48 -22.0746 -69.8057
rradius 24.0103
rwrist -6.52097
rhand -11.5828 24.1116
rfingers 7.12502
rthumb 14.459 -5.36462
lclavicle -3.73715e-014 3.18055e-014
lhumerus -34.5336 2.44724 84.334
lradius 27.7115
lwrist -10.3205
lhand 0.117418 43.6733
lfingers 7.12502
lthumb 25.7028 71.9579
rfemur -18.0872 -1.67946 28.5089
rtibia 18.8664
rfoot -6.18516 -2.50834
rtoes 23.0405
lfemur -7.24071 -3.19491 -14.1429
ltibia 54.7849
lfoot 12.7209 -20.9151
ltoes 6.78908
535
root 0.170298 17.365 7.37111 4.82355 5.01266 -5.1143
lowerback 0.0948109 -1.85597 2.80297
upperback -1.45939 -2.3877 4.70733
thorax -1.46702 -1.19713 3.30453
lowerneck -16.4669 -1.30296 -3.24693
upperneck 23.1367 -0.591764 -1.3114
head 10.1125 -0.71683 0.00290862
rclavicle 3.24516e-014 -2.8625e-014
rhumerus -32.9257 -21.4814 -69.7667
rradius 24.4175
rwrist -7.04485
rhand -11.4823 22.8252
rfingers 7.12502
rthumb 14.5558 -6.64413
lclavicle 3.24516e-014 -2.8625e-014
lhumerus -34.9003 2.01446 84.5486
lradius 27.7335
lwrist -10.4652
lhand 0.353633 42.6668
lfingers 7.12502
lthumb 25.929 70.9185
rfemur -17.2667 -0.438021 29.4584
rtibia 19.0071
rfoot -6.65787 -3.10206
rtoes 22.0946
lfemur -7.37166 -2.27045 -12.8077
ltibia 56.9364
lfoot 8.32074 -22.6304
ltoes -8.59459
536
root 0.175578 17.3704 7.47633 4.75454 5.1639 -5.12443
lowerback 0.611435 -1.8773 3.10515
upperback -1.73824 -2.36617 4.58672
thorax -2.06328 -1.19237 3.03839
lowerneck -16.1521 -1.36206 -3.28094
upperneck 23.4316 -0.724506 -1.12057
head 10.1604 -0.761543 0.0587206
rclavicle 1.93815e-014 -1.82882e-014
rhumerus -33.5473 -21.2602 -69.653
rradius 24.4596
rwrist -7.26212
rhand -11.4152 22.9892
rfingers 7.12502
rthumb 14.6205 -6.47548
lclavicle 1.93815e-014 -1.82882e-014
lhumerus -35.4153 1.86024 84.4884
lradius 27.833
lwrist -10.6448
lhand 0.770692 43.2681
lfingers 7.12502
lthumb 26.3284 71.4607
rfemur -17.0217 -0.993081 29.5178
rtibia 19.4822
rfoot -7.0692 -2.50554
rtoes 22.7432
lfemur -8.81687 -2.32862 -12.6959
ltibia 58.8508
lfoot 8.69655 -21.6357
ltoes -3.22767
537
root 0.154392 17.3687 7.61563 4.43371 4.77968 -5.68803
lowerback 0.244155 -1.63607 3.60445
upperback -1.18698 -2.09107 4.72145
thorax -1.31032 -1.0562 2.86545
lowerneck -16.5085 -1.51275 -3.20555
upperneck 23.1098 -0.814277 -1.62728
head 10.1125 -0.852714 -0.14556
rclavicle 2.98177e-015 -3.57812e-014
rhumerus -33.0289 -22.3067 -69.3972
rradius 24.1833
rwrist -6.47804
rhand -11.5233 22.722
rfingers 7.12502
rthumb 14.5163 -6.75012
lclavicle 2.98177e-015 -3.57812e-014
lhumerus -34.8388 1.57045 84.6934
lradius 27.91
lwrist -10.8593
lhand 0.493247 42.8607
lfingers 7.12502
lthumb 26.0627 71.0927
rfemur -16.1323 -0.544566 30.2495
rtibia 19.4618
rfoot -7.4657 -2.50229
rtoes 21.9818
lfemur -9.78426 -1.61355 -11.7586
ltibia 60.6454
lfoot 8.14189 -21.9083
ltoes -0.95914
538
root 0.152886 17.3703 7.74285 4.22938 4.56403 -5.30879
lowerback 0.394738 -1.64577 3.22273
upperback -1.12175 -2.10397 4.60308
thorax -1.31757 -1.05957 2.95975
lowerneck -16.2953 -1.52552 -3.18365
upperneck 23.1761 -0.83696 -1.66774
head 10.0958 -0.866419 -0.165293
rclavicle 5.91384e-015 -1.51076e-014
rhumerus -33.2189 -21.8969 -69.5073
rradius 24.2507
rwrist -6.99678
rhand -11.0456 22.0234
rfingers 7.12502
rthumb 14.9765 -7.4151
lclavicle 5.91384e-015 -1.51076e-014
lhumerus -35.1013 2.36066 84.3334
lradius 28.0943
lwrist -11.7339
lhand 1.04437 43.0248
lfingers 7.12502
lthumb 26.5903 71.178
rfemur -15.2848 -0.816958 29.9079
rtibia 19.3424
rfoot -8.10577 -1.92734
rtoes 20.361
lfemur -10.709 -1.40071 -12.1311
ltibia 62.258
lfoot 7.41557 -21.7274
ltoes 1.8644
539
root 0.138743 17.3698 7.869 3.98594 4.34004 -5.70351
lowerback 0.646422 -1.55291 3.60045
upperback -1.05212 -1.96158 4.66891
thorax -1.40212 -0.991958 2.82124
lowerneck -16.6195 -1.45879 -3.20587
upperneck 23.5906 -0.702887 -1.70642
head 10.3067 -0.818488 -0.162523
rclavicle -2.7482e-014 1.03368e-014
rhumerus -33.1589 -22.3223 -69.3638
rradius 23.9387
rwrist -6.59209
rhand -11.4732 21.6993
rfingers 7.12502
rthumb 14.5646 -7.76936
lclavicle -2.7482e-014 1.03368e-014
lhumerus -35.2955 2.07474 84.4302
lradius 28.4779
lwrist -11.499
lhand 0.651531 43.3344
lfingers 7.12502
lthumb 26.2143 71.544
rfemur -14.4901 -0.603602 30.4156
rtibia 19.2189
rfoot -8.2052 -1.92088
rtoes 21.5759
lfemur -11.6557 -0.903108 -11.4514
ltibia 63.7066
lfoot 6.21367 -21.7098
ltoes 2.64575
540
root 0.122667 17.3593 8.00253 3.72896 4.00892 -6.03881
lowerback 1.08633 -1.40416 3.81808
upperback -1.30089 -1.71125 4.78641
thorax -1.91492 -0.87221 2.8354
lowerneck -15.894 -1.48173 -3.02516
upperneck 23.5811 -0.631784 -2.42124
head 10.163 -0.851328 -0.430027
rclavicle -3.85145e-014 2.22639e-014
rhumerus -33.8743 -21.9496 -68.96
rradius 23.7887
rwrist -6.64024
rhand -11.5821 21.6
rfingers 7.12502
rthumb 14.4597 -7.87624
lclavicle -3.85145e-014 2.22639e-014
lhumerus -36.0175 2.19818 84.4574
lradius 28.4705
lwrist -11.6331
lhand 0.469297 42.5732
lfingers 7.12502
lthumb 26.0398 70.8086
rfemur -13.7585 -0.286005 30.8903
rtibia 19.3195
rfoot -8.73446 -2.08628
rtoes 21.5932
lfemur -12.6218 -0.248606 -10.832
ltibia 65.0633
lfoot 4.74273 -21.7511
ltoes 4.51001
541
root 0.113377 17.3683 8.14256 3.57784 3.58911 -5.49228
lowerback 1.0056 -1.34673 3.18256
upperback -1.20896 -1.66181 4.61833
thorax -1.76139 -0.839736 3.01049
lowerneck -15.7274 -1.38767 -3.01786
upperneck 23.737 -0.468977 -2.55891
head 10.1873 -0.793794 -0.458225
rclavicle -1.07841e-014 7.15625e-015
rhumerus -33.8221 -21.7836 -69.0215
rradius 23.5568
rwrist -6.89859
rhand -11.4973 20.8793
rfingers 7.12502
rthumb 14.5414 -8.59108
lclavicle -1.07841e-014 7.15625e-015
lhumerus -36.4462 2.25574 84.3682
lradius 29.0006
lwrist -11.2576
lhand 0.102588 42.9492
lfingers 7.12502
lthumb 25.6886 71.2358
rfemur -12.9778 -0.0949509 30.3343
rtibia 19.2437
rfoot -8.91538 -1.8825
rtoes 21.3995
lfemur -13.4036 0.214042 -11.4004
ltibia 66.1221
lfoot 3.89749 -21.3296
ltoes 7.29158
542
root 0.124471 17.3715 8.25509 3.5157 3.7296 -5.25113
lowerback 0.779614 -1.35606 3.24812
upperback -0.871911 -1.70845 4.47766
thorax -1.29198 -0.862167 2.81525
lowerneck -16.0844 -1.457 -2.96438
upperneck 23.6585 -0.468099 -2.93333
head 10.2278 -0.833876 -0.60191
rclavicle -1.54804e-014 1.66979e-014
rhumerus -33.2675 -22.3145 -68.9916
rradius 23.0202
rwrist -6.71928
rhand -11.5801 21.1884
rfingers 7.12502
rthumb 14.4616 -8.28771
lclavicle -1.54804e-014 1.66979e-014
lhumerus -35.9482 2.43105 84.3704
lradius 29.1551
lwrist -11.2844
lhand -0.186288 42.9709
lfingers 7.12502
lthumb 25.4119 71.2972
rfemur -12.5058 -0.947083 30.0625
rtibia 19.4067
rfoot -9.25049 -1.19915
rtoes 20.5374
lfemur -14.4861 0.175479 -11.7371
ltibia 67.0454
lfoot 3.32969 -21.0293
ltoes 8.74092
543
root 0.101088 17.3515 8.37682 3.2249 3.2529 -6.26083
lowerback 1.3877 -1.21462 4.05104
upperback -1.1337 -1.44251 4.75631
thorax -1.92448 -0.740839 2.67095
lowerneck -15.5577 -1.41605 -2.8005
upperneck 23.8825 -0.345831 -3.41755
head 10.2079 -0.820631 -0.782075
rclavicle 4.34841e-015 -3.73715e-014
rhumerus -34.06 -22.1006 -68.6437
rradius 22.9941
rwrist -6.36572
rhand -11.3637 20.3452
rfingers 7.12502
rthumb 14.6701 -9.11579
lclavicle 4.34841e-015 -3.73715e-014
lhumerus -36.8045 2.8902 84.0968
lradius 29.4223
lwrist -11.045
lhand -0.271503 42.9349
lfingers 7.12502
lthumb 25.3303 71.2727
rfemur -11.7886 -0.141293 31.3171
rtibia 19.5211
rfoot -9.76751 -1.63338
rtoes 19.7334
lfemur -15.4173 1.10282 -10.3281
ltibia 67.9553
lfoot 2.85186 -20.7734
ltoes 14.9483
